# xmcd
# 
# Track frame offsets:
#     150
#     16477
#     29789
#     45257
#     54588
#     68936
#     88193
#     110188
#     113818
#     128494
#     141438
#     157885
# 
# Disc length: 2251
# 
# Revision: 0
# Processed by: cddbd v1.5.2PL0 Copyright (c) Steve Scherf et al.
# Submitted via: fre:ac v1.0.17
# 
DISCID=a708c90c
DTITLE=Bikimel - Stat Jònic 
DYEAR=2010
DGENRE=Blues
TTITLE0=Jònic
TTITLE1=El lament
TTITLE2=Plàstik
TTITLE3=El meu racó
TTITLE4=L'espantaocells
TTITLE5=Dolç cavaller
TTITLE6=La roca del rei
TTITLE7=Entrant a la balena
TTITLE8=Jonàs
TTITLE9=La cançó del gitano
TTITLE10=La mel del meu rebost
TTITLE11=La foscor
EXTD=
EXTT0=
EXTT1=
EXTT2=
EXTT3=
EXTT4=
EXTT5=
EXTT6=
EXTT7=
EXTT8=
EXTT9=
EXTT10=
EXTT11=
PLAYORDER=
